Coordinates
version=1
nRows=12
nColumns=43
inDegrees=yes

Units are S.I. units (second, meters, Newtons, ...)
Angles are in degrees.

endheader
time	pelvis_tilt	pelvis_list	pelvis_rotation	pelvis_tx	pelvis_ty	pelvis_tz	hip_flexion_r	hip_adduction_r	hip_rotation_r	knee_angle_r	ankle_angle_r	subtalar_angle_r	mtp_angle_r	hip_flexion_l	hip_adduction_l	hip_rotation_l	knee_angle_l	ankle_angle_l	subtalar_angle_l	mtp_angle_l	lumbar_extension	lumbar_bending	lumbar_rotation	neck_flexion	neck_lateral_bending	neck_rotation	arm_flex_r	arm_add_r	arm_rot_r	elbow_flex_r	pro_sup_r	wrist_flex_r	wrist_dev_r	hand_finger_flex_r	arm_flex_l	arm_add_l	arm_rot_l	elbow_flex_l	pro_sup_l	wrist_flex_l	wrist_dev_l	hand_finger_flex_l
      1.49000000	     15.08942889	     -4.25401148	      8.55818443	      1.42281010	      0.92223958	      0.35613027	     -4.74709945	      8.27966022	    -12.64827800	    -19.73151561	     15.87443825	     -9.40657950	      0.00000000	     -9.85568167	    -11.42247877	     -0.95950460	    -60.23140234	      1.71484927	     -6.75095770	      0.00000000	    -18.35670406	      6.70716312	     -7.71209971	     -7.36964268	     -2.06570370	     -1.19770721	    -15.76802158	    -13.02644564	     -0.85539474	     48.38632093	    -68.74611125	     -8.65749047	    -21.82908296	      1.91595651	     -0.38531177	    -13.33384202	     -3.11639481	     71.43101947	    -53.40453111	    -21.95114849	     -3.60204804	     28.58859544
      1.49500000	     15.06807870	     -4.09804082	      8.44233609	      1.42920609	      0.92303786	      0.35683932	     -5.48462832	      8.26410514	    -12.57850287	    -19.17343944	     15.96938782	     -9.39672650	      0.00000000	     -9.03231851	    -11.34808372	     -1.14748782	    -60.54180671	      1.94420942	     -6.74097537	      0.00000000	    -18.37802779	      6.42427926	     -7.50410510	     -7.25580793	     -1.95018354	     -1.32860575	    -15.40043626	    -13.10128615	     -0.87071038	     48.65464258	    -68.77063733	     -8.55352541	    -21.64770241	      1.96884252	     -0.89359618	    -13.28199149	     -3.10662786	     70.78284180	    -53.35935487	    -21.96927958	     -3.69290967	     28.54222502
      1.50000000	     14.95840290	     -4.03929031	      8.22449177	      1.43622910	      0.92368436	      0.35757284	     -6.10013118	      8.31016106	    -12.36456789	    -18.77703690	     16.29416258	     -9.09579538	      0.00000000	     -8.26872218	    -11.31347998	     -1.32742093	    -60.67469231	      3.27244648	     -5.68563605	      0.00000000	    -18.14608357	      6.21619290	     -6.90168630	     -7.58977041	     -1.99476394	     -1.90703898	    -15.37025323	    -13.14086177	     -1.28461856	     48.89362286	    -70.01668191	     -7.64560693	    -20.15730089	      2.36916477	     -1.23786562	    -13.05192312	     -2.86678686	     69.71959363	    -52.13903589	    -21.99311574	     -4.11537465	     28.06017959
      1.50500000	     14.92283862	     -3.87899324	      8.07591426	      1.44256450	      0.92446180	      0.35806046	     -6.81766824	      8.26723039	    -12.20027606	    -18.25013087	     16.36364723	     -9.09247747	      0.00000000	     -7.41912667	    -11.10370971	     -1.38514232	    -60.86164296	      3.73058481	     -5.85065003	      0.00000000	    -18.12641574	      5.94225513	     -6.65033954	     -7.67235182	     -1.82004697	     -1.97163939	    -15.02320621	    -13.28025416	     -1.32534677	     49.32504995	    -70.09639358	     -7.55462713	    -20.10221097	      2.41252397	     -1.68942373	    -12.84735683	     -3.03108939	     68.78667431	    -52.13741229	    -21.99525652	     -4.27660762	     27.99433647
      1.51000000	     14.87448935	     -3.76230065	      7.81748700	      1.44890521	      0.92511903	      0.35878125	     -7.54208953	      8.25036955	    -11.95727597	    -17.65809412	     16.45677090	     -9.03220052	      0.00000000	     -6.65225789	    -10.89275285	     -1.49781820	    -60.89340209	      4.17845028	     -5.93676749	      0.00000000	    -18.07296168	      5.66552050	     -6.23614635	     -7.79397714	     -1.61671566	     -2.06427251	    -14.72534297	    -13.43610468	     -1.36656523	     49.77252957	    -70.18177044	     -7.46661064	    -20.05316776	      2.45931167	     -2.12445182	    -12.69459563	     -3.09089949	     67.92617990	    -52.14040652	    -21.96081765	     -4.40335506	     27.93145033
      1.51500000	     14.86053207	     -3.63385453	      7.64285888	      1.45484633	      0.92579696	      0.35960906	     -8.22570678	      8.23599663	    -11.73627026	    -17.13485966	     16.54688723	     -8.97333782	      0.00000000	     -5.88113287	    -10.73883688	     -1.65112537	    -60.90666719	      4.47359102	     -5.97927960	      0.00000000	    -18.11770588	      5.37658692	     -5.95220469	     -7.87880831	     -1.50051471	     -2.17870379	    -14.33794476	    -13.46660964	     -1.46458531	     50.16904192	    -70.26254297	     -7.39802784	    -19.99836142	      2.49325552	     -2.52353884	    -12.63810331	     -3.17243607	     67.16493690	    -52.12664466	    -21.95401278	     -4.51305819	     27.88422310
      1.52000000	     15.07308699	     -3.35547659	      6.97992135	      1.46171908	      0.92709652	      0.36087189	     -9.32046256	      8.01306268	    -11.03604607	    -16.49258235	     16.80437475	     -8.65516700	      0.00000000	     -5.87272039	    -10.31262557	     -2.21473241	    -60.32235368	      4.77323548	     -5.91587746	      0.00000000	    -18.33045578	      4.84865172	     -4.96768103	     -8.12058856	     -1.32961787	     -2.55657936	    -14.28263560	    -13.44854328	     -2.02575089	     50.68373978	    -71.15677365	     -6.84711135	    -19.94909691	      2.70250181	     -2.76910783	    -12.51688490	     -2.90865018	     66.02282175	    -51.67747036	    -21.60494589	     -4.83306754	     27.57700866
      1.52500000	     15.05094062	     -3.14618361	      6.82961636	      1.46817105	      0.92780380	      0.36128360	    -10.15916679	      7.88995017	    -10.86435708	    -15.75935501	     16.87004440	     -8.60482147	      0.00000000	     -5.20472196	     -9.96889379	     -2.19273759	    -60.10104541	      4.97335490	     -5.84416695	      0.00000000	    -18.29063876	      4.52235799	     -4.70803550	     -8.26398891	     -1.18073105	     -2.66081337	    -14.02953962	    -13.58327185	     -2.12354129	     51.12516743	    -71.29530165	     -6.73637322	    -19.90270748	      2.75652697	     -3.25372570	    -12.33398927	     -3.10920409	     65.11571105	    -51.63806441	    -21.51862608	     -4.99445996	     27.51338840
      1.53000000	     15.34170580	     -2.59807848	      6.41484730	      1.47460554	      0.92910590	      0.36237008	    -11.28982211	      7.35624658	    -10.80744630	    -15.27960095	     17.19826351	     -8.08985612	      0.00000000	     -5.09416419	     -9.35064063	     -2.54212558	    -59.58591454	      5.43787807	     -5.44411165	      0.00000000	    -18.64211517	      3.74365544	     -4.13808237	     -8.50066196	     -1.06902237	     -2.90468305	    -13.80160852	    -13.54729659	     -2.38577229	     51.66290712	    -72.19934418	     -6.28219850	    -19.96926132	      2.98040303	     -3.57068398	    -12.29773516	     -3.08122629	     64.13731109	    -51.43725745	    -21.13746673	     -5.15986412	     27.20233839
      1.53500000	     15.61397376	     -2.18050926	      6.18845566	      1.48096303	      0.93009269	      0.36286031	    -12.29639602	      6.93019697	    -11.14852110	    -14.91475463	     17.58668100	     -7.42790330	      0.00000000	     -4.87640505	     -8.78866312	     -2.61584833	    -59.06237609	      6.05196266	     -5.70625379	      0.00000000	    -18.95128389	      3.18738850	     -3.83363804	     -8.55752674	     -0.96873790	     -3.16199323	    -13.51309122	    -13.61741242	     -2.55139783	     52.19360955	    -72.81643269	     -5.95619734	    -19.75665912	      3.08475389	     -4.03065612	    -12.15026691	     -3.33082641	     63.24622731	    -51.46046065	    -20.66734560	     -5.06628111	     26.86463773
      1.54000000	     15.64596586	     -1.90949791	      5.99318760	      1.48729418	      0.93065651	      0.36336743	    -12.90128490	      6.64689412	    -11.43548338	    -14.71121735	     17.66872949	     -7.28298715	      0.00000000	     -4.33950827	     -8.39829199	     -2.70069491	    -58.56136893	      7.09785493	     -5.79933252	      0.00000000	    -18.99951053	      2.77658001	     -3.52296038	     -8.56764721	     -0.77293102	     -3.30402528	    -13.29528426	    -13.76259743	     -2.62670870	     52.72904693	    -72.83964405	     -5.84964391	    -19.70667709	      3.13775017	     -4.50800694	    -12.00336070	     -3.61837910	     62.38944353	    -51.48883371	    -20.56670202	     -5.16756017	     26.76236029
      1.54500000	     16.00792597	     -1.34491723	      5.68287970	      1.49351604	      0.93182039	      0.36423832	    -13.94148062	      6.03415565	    -11.84853115	    -14.48261432	     18.25541167	     -5.93254932	      0.00000000	     -4.45158167	     -7.74083198	     -3.02377112	    -57.60966065	      8.67187646	     -4.99007710	      0.00000000	    -19.46314889	      2.01141355	     -3.14727303	     -8.63799322	     -0.63512431	     -3.65152538	    -12.96107011	    -13.65582900	     -2.99035545	     53.24226222	    -73.30229752	     -5.49794784	    -19.92881817	      3.33097335	     -4.90946778	    -12.11841100	     -3.54094356	     61.59008093	    -51.31022110	    -20.09238670	     -4.93777813	     26.27101060
